<?xml version="1.0" encoding="UTF-8"?>
<svg width="23px" height="25px" viewBox="0 0 23 25" version="1.1" xmlns="http://www.w3.org/2000/svg" xmlns:xlink="http://www.w3.org/1999/xlink">
    <title>D1A02217-6C52-4582-A56A-D2503CDE5263</title>
    <g id="Page-1" stroke="none" stroke-width="1" fill="none" fill-rule="evenodd">
        <g id="15.3" transform="translate(-104.000000, -158.000000)" fill="#FFFFFF">
            <g id="stable_b" transform="translate(90.000000, 148.000000)">
                <g id="misc/graphics/stop_watch" transform="translate(15.000000, 11.000000)">
                    <path d="M7.49983021,0.000100431844 C7.13919429,-0.0049998577 6.80374885,0.184475728 6.62194249,0.495973282 C6.44013613,0.807470835 6.44013613,1.19273003 6.62194249,1.50422758 C6.80374885,1.81572514 7.13919429,2.00520072 7.49983021,2.00010043 L12.49983,2.00010043 C12.8604659,2.00520072 13.1959114,1.81572514 13.3777177,1.50422758 C13.5595241,1.19273003 13.5595241,0.807470835 13.3777177,0.495973282 C13.1959114,0.184475728 12.8604659,-0.0049998577 12.49983,0.000100431844 L7.49983021,0.000100431844 Z M18.35921,2.68174143 C17.9517637,2.68182118 17.5850999,2.9290712 17.4322979,3.30678009 C17.2794958,3.68448898 17.371108,4.11713446 17.66389,4.40049143 L19.19319,5.92978843 C19.4440052,6.1910363 19.8164593,6.29627641 20.1669058,6.2049202 C20.5173523,6.11356398 20.7910284,5.83988731 20.8823838,5.48944062 C20.9737393,5.13899392 20.8684984,4.76654006 20.60725,4.51572543 L19.07796,2.98642843 C18.8895454,2.79169104 18.6301763,2.68174143 18.35921,2.68174143 L18.35921,2.68174143 Z M10.00179,3.00005343 C7.43901021,3.00005343 4.87527021,3.97426243 2.92561021,5.92392843 C-0.973699769,9.82324733 -0.976039769,16.1769533 2.92361021,20.0762723 C6.82293021,23.9755913 13.17663,23.9736593 17.07595,20.0742723 C20.97528,16.1749533 20.97528,9.82320733 17.07595,5.92388143 C15.1263,3.97421843 12.56451,3.00005343 10.00174,3.00005343 L10.00179,3.00005343 Z M15.6619,7.33994443 C18.79693,10.4749723 18.79693,15.5252343 15.6619,18.6602563 C12.52688,21.7952773 7.47270021,21.7972093 4.33768021,18.6622563 C1.20266021,15.5272353 1.20501021,10.4750123 4.33968021,7.33999143 C5.90719021,5.77247343 7.95309021,4.98838143 9.99983001,4.98838143 C12.04653,4.98838143 14.09439,5.77243343 15.6619,7.33994443 Z M9.99979001,13.0001004 L14.4298954,7.58003423 C13.2231867,6.59255445 11.6806755,6.00010043 9.99979001,6.00010043 L9.99979001,13.0001004 Z" id="Shape" stroke="#232629" stroke-width="0.5" fill-rule="nonzero"></path>
                    <path d="M10,12.9999203 C13.8659932,12.9999203 17.0332031,13.0236816 17,13 C17,9.13400675 13.8659932,5.99995906 10,5.99995906 C9.97802734,5.98046875 9.98535156,12.9550781 10,12.9999203 Z" id="Oval"></path>
                </g>
            </g>
        </g>
    </g>
</svg>